<svg xmlns="http://www.w3.org/2000/svg" xmlns:xlink="http://www.w3.org/1999/xlink" version="1.1" x="0px" y="0px" viewBox="0 0 90 112.5" enable-background="new 0 0 90 90" xml:space="preserve"><path d="M50.485,29.905c1.329-1.373,2.151-3.243,2.151-5.307c0-4.217-3.421-7.635-7.638-7.635c-4.217,0-7.637,3.417-7.637,7.635  c0,2.064,0.825,3.935,2.153,5.307c-3.617,1.954-6.071,5.778-6.071,10.175h23.113C56.557,35.683,54.104,31.858,50.485,29.905z"/><path d="M26.62,45.639h1.588v15.209c1.417-3.238,4.638-5.506,8.39-5.506c3.758,0,6.993,2.281,8.401,5.533  c1.412-3.252,4.644-5.533,8.405-5.533c3.749,0,6.97,2.268,8.387,5.506V45.639h1.588c0.857,0,1.547-0.692,1.547-1.543  c0-0.851-0.689-1.542-1.547-1.542H26.62c-0.853,0-1.544,0.691-1.544,1.542C25.075,44.947,25.767,45.639,26.62,45.639z"/><path d="M54.335,70.703c1.076-2.479,3.139-4.422,5.673-5.381c0.033-0.271,0.083-0.541,0.083-0.82c0-3.693-2.994-6.688-6.688-6.688  c-3.695,0-6.691,2.994-6.691,6.688c0,0.098,0.024,0.189,0.03,0.285C50.154,65.342,52.996,67.621,54.335,70.703z"/><path d="M63.541,64.648c4.016,0,7.475,2.375,9.079,5.787c0.875-1.863,2.319-3.398,4.093-4.424c0.113-0.488,0.186-0.988,0.186-1.51  c0-3.693-2.994-6.688-6.691-6.688c-3.694,0-6.69,2.994-6.69,6.688c0,0.053,0.017,0.1,0.017,0.146  C63.536,64.648,63.539,64.648,63.541,64.648z"/><path d="M35.922,70.703c1.304-2.998,4.035-5.227,7.328-5.855c0.005-0.115,0.036-0.227,0.036-0.346c0-3.693-2.994-6.688-6.688-6.688  c-3.697,0-6.691,2.994-6.691,6.688c0,0.244,0.044,0.475,0.072,0.711C32.641,66.137,34.804,68.137,35.922,70.703z"/><path d="M17.51,70.703c1.51-3.482,4.945-5.932,8.954-6.033c0-0.059,0.017-0.109,0.017-0.168c0-3.693-2.994-6.688-6.691-6.688  c-3.694,0-6.688,2.994-6.688,6.688c0,0.521,0.075,1.021,0.185,1.51C15.147,67.084,16.646,68.717,17.51,70.703z"/><path d="M15.631,74.689c0,4.047-3.279,7.33-7.33,7.33c-4.048,0-7.33-3.283-7.33-7.33c0-4.053,3.282-7.332,7.33-7.332  C12.352,67.357,15.631,70.637,15.631,74.689z M26.714,67.357c-4.046,0-7.328,3.279-7.328,7.332c0,4.047,3.282,7.33,7.328,7.33  c4.051,0,7.333-3.283,7.333-7.33C34.046,70.637,30.765,67.357,26.714,67.357z M45.126,67.357c-4.045,0-7.327,3.279-7.327,7.332  c0,4.047,3.282,7.33,7.327,7.33c4.051,0,7.333-3.283,7.333-7.33C52.459,70.637,49.177,67.357,45.126,67.357z M63.541,67.357  c-4.048,0-7.33,3.279-7.33,7.332c0,4.047,3.282,7.33,7.33,7.33c4.049,0,7.33-3.283,7.33-7.33  C70.871,70.637,67.59,67.357,63.541,67.357z M81.696,67.357c-4.045,0-7.326,3.279-7.326,7.332c0,4.047,3.281,7.33,7.326,7.33  c4.051,0,7.333-3.283,7.333-7.33C89.029,70.637,85.747,67.357,81.696,67.357z"/><path d="M67.736,7.981c-5.563,0-10.069,4.507-10.069,10.072c0,1.818,0.487,3.522,1.334,4.995l-2.444,6.019l5.961-2.416  c1.524,0.93,3.307,1.472,5.219,1.472c5.562,0,10.069-4.507,10.069-10.069C77.806,12.488,73.298,7.981,67.736,7.981z"/><text x="0" y="105" fill="#000000" font-size="5px" font-weight="bold" font-family="'Helvetica Neue', Helvetica, Arial-Unicode, Arial, Sans-serif">Created by Yazmin Alanis</text><text x="0" y="110" fill="#000000" font-size="5px" font-weight="bold" font-family="'Helvetica Neue', Helvetica, Arial-Unicode, Arial, Sans-serif">from the Noun Project</text></svg>