<svg xmlns:dc="http://purl.org/dc/elements/1.1/" xmlns:cc="http://creativecommons.org/ns#" xmlns:rdf="http://www.w3.org/1999/02/22-rdf-syntax-ns#" xmlns:svg="http://www.w3.org/2000/svg" xmlns="http://www.w3.org/2000/svg" xmlns:sodipodi="http://sodipodi.sourceforge.net/DTD/sodipodi-0.dtd" xmlns:inkscape="http://www.inkscape.org/namespaces/inkscape" viewBox="0 0 135.466 169.3325" version="1.1" x="0px" y="0px"><g transform="translate(0,-161.534)"><path style="opacity:1;fill:#000000;fill-opacity:1;fill-rule:nonzero;stroke:none;stroke-width:2.645823;stroke-linecap:square;stroke-linejoin:miter;stroke-miterlimit:4;stroke-dasharray:2.645823, 2.64582300000000000;stroke-dashoffset:0;stroke-opacity:1;paint-order:markers fill stroke" d="m 115.297,165.45 a 1.34649,1.34649 0 0 0 -1.345,1.346 v 17.233 a 1.34649,1.34649 0 0 0 1.345,1.348 h 17.233 a 1.34649,1.34649 0 0 0 1.347,-1.348 v -17.233 a 1.34649,1.34649 0 0 0 -1.347,-1.346 z m -34.5762,1.346 v 17.234 h 17.2334 v -17.234 z m 35.9212,1.348 h 14.541 v 14.54 h -14.541 z m -60.8039,0.274 a 0.504936,0.504936 0 0 0 -0.3853,0.798 c 1.0629,1.48 1.7051,3.161 1.9264,4.877 H 30.2086 v 55.2 55.199 h 27.1723 c -0.2192,1.71 -0.8601,3.372 -1.9281,4.819 a 0.504936,0.504936 0 0 0 0.5805,0.774 l 17.6532,-6.49 a 0.504936,0.504936 0 0 0 0,-0.947 l -17.6532,-6.492 a 0.504936,0.504936 0 0 0 -0.1952,-0.03 0.504936,0.504936 0 0 0 -0.3853,0.798 c 1.0629,1.481 1.7051,3.161 1.9264,4.878 H 32.6172 V 230.91 h 24.7637 c -0.2192,1.71 -0.8601,3.371 -1.9281,4.82 a 0.504936,0.504936 0 0 0 0.5805,0.774 l 17.6532,-6.492 a 0.504936,0.504936 0 0 0 0,-0.947 l -17.6532,-6.493 a 0.504936,0.504936 0 0 0 -0.1981,-0.03 v 0 a 0.504936,0.504936 0 0 0 -0.3853,0.799 c 1.0624,1.48 1.7043,3.161 1.9259,4.877 H 32.6172 v -51.432 h 24.7637 c -0.2192,1.71 -0.8601,3.371 -1.9281,4.82 a 0.504936,0.504936 0 0 0 0.5805,0.774 l 17.6532,-6.492 a 0.504936,0.504936 0 0 0 0,-0.947 l -17.6532,-6.492 a 0.504936,0.504936 0 0 0 -0.1952,-0.03 z m 46.4239,4.841 a 2.15417,2.15417 0 0 0 -2.154,2.155 2.15417,2.15417 0 0 0 2.154,2.154 2.15417,2.15417 0 0 0 2.155,-2.154 2.15417,2.15417 0 0 0 -2.155,-2.155 z m 6.462,0 a 2.15417,2.15417 0 0 0 -2.154,2.153 2.15417,2.15417 0 0 0 2.154,2.155 2.15417,2.15417 0 0 0 2.154,-2.155 2.15417,2.15417 0 0 0 -2.154,-2.153 z m -95.4672,42.544 c 0,0 -4.18895,0 -6.58295,2.095 -2.393,2.094 -2.692,5.685 -2.692,5.685 0,0 0,1.496 0.299,2.993 0.299,1.496 -2.693,2.992 -2.693,3.889 0,0.897 1.795,0.897 1.795,1.795 0,0.897 -0.299,0.897 -0.299,1.196 0,0.299 0.598,0.3 0.598,0.6 0,0.298 -0.299,0.897 -0.299,0.897 0,0 0.985,0.71 0.898,1.496 -0.09,0.786 -0.598,1.197 0.299,2.094 0.898,0.897 3.89,-0.299 5.086,0.597 1.19695,0.899 1.79495,3.591 1.79495,3.591 h 10.4724 c 0,0 -1.7954,-3.889 -1.4962,-5.983 0.2992,-2.094 1.7955,-4.488 1.7955,-4.488 0,0 2.0942,-2.692 2.3934,-4.488 0.2992,-1.796 0,-3.292 -0.2993,-4.488 -0.2992,-1.197 -1.1969,-3.891 -3.8896,-5.687 -2.6927,-1.794 -7.1802,-1.794 -7.1802,-1.794 z m 110.5972,3.672 a 1.25305,1.44689 0 0 0 -1.026,0.722 l -8.617,17.234 a 1.25305,1.44689 0 0 0 1.085,2.17 h 17.234 a 1.25305,1.44689 0 0 0 1.085,-2.167 l -8.616,-17.235 a 1.25305,1.44689 0 0 0 -1.145,-0.722 z m -34.5171,1.444 -8.6161,17.235 h 17.2334 z m 34.5761,2.895 6.446,12.892 h -12.892 z m -21.651,3.569 a 2.15417,2.15417 0 0 0 -2.154,2.155 2.15417,2.15417 0 0 0 2.154,2.154 2.15417,2.15417 0 0 0 2.155,-2.154 2.15417,2.15417 0 0 0 -2.155,-2.155 z m 6.462,0 a 2.15417,2.15417 0 0 0 -2.154,2.153 2.15417,2.15417 0 0 0 2.154,2.155 2.15417,2.15417 0 0 0 2.154,-2.155 2.15417,2.15417 0 0 0 -2.154,-2.153 z m 11.389,45.777 a 1.34649,1.34649 0 0 0 -1.266,1.361 l 0.07,5.383 -4.395,3.109 a 1.34649,1.34649 0 0 0 0.377,2.386 l 5.141,1.598 1.598,5.14 a 1.34649,1.34649 0 0 0 2.385,0.377 l 3.109,-4.395 5.383,0.07 a 1.34649,1.34649 0 0 0 1.097,-2.15 l -3.22,-4.316 1.729,-5.098 a 1.34649,1.34649 0 0 0 -1.708,-1.708 l -5.097,1.73 -4.316,-3.221 a 1.34649,1.34649 0 0 0 -0.885,-0.264 z m -34.4972,1.344 0.078,6.092 -4.9728,3.516 5.8165,1.809 1.8082,5.817 3.5174,-4.974 6.0913,0.08 -3.6439,-4.882 1.9565,-5.768 -5.7688,1.956 z m 35.9572,2.712 2.696,2.01 a 1.34649,1.34649 0 0 0 1.237,0.198 l 3.186,-1.082 -1.082,3.187 a 1.34649,1.34649 0 0 0 0.198,1.236 l 2.011,2.697 -3.362,-0.04 a 1.34649,1.34649 0 0 0 -1.118,0.569 l -1.942,2.745 -0.998,-3.21 a 1.34649,1.34649 0 0 0 -0.887,-0.887 l -3.209,-0.998 2.744,-1.942 a 1.34649,1.34649 0 0 0 0.569,-1.117 z m -19.311,3.75 a 2.15417,2.15417 0 0 0 -2.154,2.155 2.15417,2.15417 0 0 0 2.154,2.155 2.15417,2.15417 0 0 0 2.155,-2.155 2.15417,2.15417 0 0 0 -2.155,-2.155 z m 6.462,0 a 2.15417,2.15417 0 0 0 -2.154,2.154 2.15417,2.15417 0 0 0 2.154,2.155 2.15417,2.15417 0 0 0 2.154,-2.155 2.15417,2.15417 0 0 0 -2.154,-2.154 z"/></g><text x="0" y="150.466" fill="#000000" font-size="5px" font-weight="bold" font-family="'Helvetica Neue', Helvetica, Arial-Unicode, Arial, Sans-serif">Created by AdbA Icons ❤️</text><text x="0" y="155.466" fill="#000000" font-size="5px" font-weight="bold" font-family="'Helvetica Neue', Helvetica, Arial-Unicode, Arial, Sans-serif">from the Noun Project</text></svg>